<svg width="61" height="44" viewBox="0 0 61 44" fill="none" xmlns="http://www.w3.org/2000/svg">
<g clip-path="url(#clip0_1240_669)">
<path fill-rule="evenodd" clip-rule="evenodd" d="M12.0937 29.5318C7.63926 29.5318 4.01545 25.8254 4.01545 21.2702C4.01545 16.715 7.63926 13.0086 12.0937 13.0086C16.5481 13.0086 20.1719 16.715 20.1719 21.2702C20.1719 25.8254 16.5481 29.5318 12.0937 29.5318ZM23.5483 9.93506H22.1818C21.08 9.93506 20.1698 10.8457 20.1698 11.9745V12.076C18.0265 10.1026 15.1946 8.90319 12.0915 8.90319C5.42495 8.90098 0 14.4506 0 21.2702C0 28.0898 5.42495 33.6394 12.0937 33.6394C15.1967 33.6394 18.0308 32.4356 20.1741 30.4644V31.5007C20.1741 36.0493 16.5352 39.8968 12.0872 39.8946C10.1053 39.8946 8.24394 39.1692 6.78925 37.8683C6.06621 37.2223 5.00533 37.1694 4.24355 37.7647L3.02773 38.7172C2.72646 38.9531 2.67482 39.4007 2.92228 39.6939C5.23343 42.45 8.55381 44.0132 12.1346 44.0022C18.8248 43.9824 24.2218 38.3071 24.2218 31.4632V10.6142C24.2218 10.2393 23.9184 9.93506 23.5526 9.93506H23.5483ZM29.3799 33.6835H30.7464C31.8568 33.6835 32.7584 32.7707 32.7584 31.644V0.679094C32.7606 0.304269 32.4593 0 32.0892 0H30.7227C29.6123 0 28.7107 0.912808 28.7107 2.03949V33.0044C28.7107 33.3792 29.0098 33.6835 29.3799 33.6835ZM60.9957 21.2922C60.9957 14.4616 55.5707 8.90098 48.902 8.90098C42.2332 8.90098 36.8083 14.4594 36.8083 21.2922C36.8083 28.1251 42.2332 33.6835 48.902 33.6835C55.5707 33.6835 60.9957 28.1251 60.9957 21.2922Z" fill="white"/>
<path d="M48.9063 29.5362C53.35 29.5362 56.9523 25.8453 56.9523 21.2923C56.9523 16.7393 53.35 13.0483 48.9063 13.0483C44.4627 13.0483 40.8604 16.7393 40.8604 21.2923C40.8604 25.8453 44.4627 29.5362 48.9063 29.5362Z" fill="#FE5000"/>
</g>
<defs>
<clipPath id="clip0_1240_669">
<rect width="61" height="44" fill="white"/>
</clipPath>
</defs>
</svg>
